<svg width="25" height="24" viewBox="0 0 25 24" fill="none" xmlns="http://www.w3.org/2000/svg">
<path fill-rule="evenodd" clip-rule="evenodd" d="M19.0146 12.7501H4.25C3.83579 12.7501 3.5 12.4143 3.5 12.0001C3.5 11.5858 3.83579 11.2501 4.25 11.2501H18.9393L12.7951 5.10577C12.5022 4.81288 12.5022 4.338 12.7951 4.04511C13.0879 3.75222 13.5628 3.75222 13.8557 4.04511L21.2782 11.4677C21.2849 11.4743 21.2914 11.481 21.2978 11.4878C21.3604 11.5546 21.4084 11.6301 21.4419 11.7102C21.4779 11.7959 21.4984 11.8898 21.4999 11.9882C21.5 11.9922 21.5 11.9961 21.5 12.0001C21.5 12.0042 21.5 12.0082 21.4999 12.0123C21.4998 12.0213 21.4995 12.0301 21.499 12.039C21.5089 12.2429 21.4359 12.45 21.2802 12.6058L13.8556 20.0304C13.5627 20.3233 13.0878 20.3233 12.7949 20.0304C12.502 19.7375 12.502 19.2626 12.7949 18.9697L19.0146 12.7501Z" fill="#004165"/>
</svg>
